<svg xmlns="http://www.w3.org/2000/svg" width="14" height="14" viewBox="0 0 14 14" fill="none">
  <path d="M7 14C3.1339 14 0 10.8661 0 7C0 3.1339 3.1339 0 7 0C10.8661 0 14 3.1339 14 7C14 10.8661 10.8661 14 7 14ZM6.3 9.1V10.5H7.7V9.1H6.3ZM7.7 7.9485C8.26257 7.77894 8.74552 7.41297 9.06091 6.91722C9.3763 6.42147 9.50313 5.82894 9.41831 5.24753C9.3335 4.66612 9.04268 4.13451 8.59881 3.74952C8.15494 3.36453 7.58756 3.15178 7 3.15C6.4336 3.14996 5.88466 3.34611 5.44655 3.7051C5.00844 4.06408 4.70821 4.56374 4.5969 5.1191L5.9703 5.3942C6.00928 5.1992 6.10282 5.01928 6.24006 4.87537C6.37729 4.73146 6.55257 4.62948 6.7455 4.58129C6.93843 4.53311 7.14107 4.5407 7.32985 4.60318C7.51864 4.66566 7.6858 4.78047 7.81188 4.93424C7.93797 5.08801 8.0178 5.27442 8.04208 5.47179C8.06636 5.66916 8.03409 5.86936 7.94904 6.04911C7.86399 6.22886 7.72964 6.38075 7.56163 6.48713C7.39362 6.59351 7.19885 6.64999 7 6.65C6.81435 6.65 6.6363 6.72375 6.50503 6.85503C6.37375 6.9863 6.3 7.16435 6.3 7.35V8.4H7.7V7.9485Z" fill="#999999"/>
</svg>
