<svg width="43" height="40" viewBox="0 0 43 40" fill="none" xmlns="http://www.w3.org/2000/svg">
<path d="M18.2551 18.4523L36.7073 0L40.0315 3.32418L36.7073 6.65071L42.5235 12.4669L39.1993 15.7934L33.3808 9.97489L30.0566 13.2991L35.0429 18.2853L31.7187 21.6119L26.7324 16.6233L21.5792 21.7764C23.1789 24.2073 23.8205 27.1449 23.3798 30.0213C22.9392 32.8978 21.4477 35.5087 19.1937 37.3492C16.9397 39.1897 14.0833 40.1291 11.1769 39.9857C8.27046 39.8424 5.5204 38.6264 3.45846 36.573C1.39208 34.5144 0.164907 31.761 0.0154518 28.848C-0.134004 25.935 0.804934 23.0705 2.64978 20.8112C4.49462 18.5519 7.11358 17.0592 9.99765 16.6232C12.8817 16.1873 15.8249 16.8392 18.2551 18.4523ZM16.7575 33.2465C17.4424 32.5987 17.9904 31.8202 18.3693 30.957C18.7481 30.0938 18.95 29.1634 18.9632 28.2208C18.9763 27.2782 18.8003 26.3426 18.4456 25.4691C18.0909 24.5957 17.5647 23.8023 16.8981 23.1357C16.2316 22.4691 15.4381 21.943 14.5647 21.5883C13.6913 21.2336 12.7556 21.0576 11.8131 21.0707C10.8705 21.0838 9.94006 21.2858 9.07685 21.6646C8.21364 22.0434 7.43513 22.5915 6.78735 23.2763C5.50264 24.6065 4.79176 26.388 4.80783 28.2372C4.8239 30.0864 5.56563 31.8553 6.87326 33.163C8.18089 34.4706 9.9498 35.2123 11.799 35.2284C13.6482 35.2444 15.4297 34.5336 16.7599 33.2489L16.7575 33.2465Z" fill="#0077B6"/>
</svg>
