<?xml version="1.0" encoding="UTF-8"?>
<svg id="Layer_1" data-name="Layer 1" xmlns="http://www.w3.org/2000/svg" xmlns:xlink="http://www.w3.org/1999/xlink" viewBox="0 0 663.26 114.27">
  <defs>
    <style>
      .cls-1 {
        fill: url(#linear-gradient);
      }

      .cls-2 {
        fill: url(#linear-gradient-8);
      }

      .cls-3 {
        fill: url(#linear-gradient-3);
      }

      .cls-4 {
        fill: url(#linear-gradient-4);
      }

      .cls-5 {
        fill: url(#linear-gradient-2);
      }

      .cls-6 {
        fill: url(#linear-gradient-6);
      }

      .cls-7 {
        fill: url(#linear-gradient-7);
      }

      .cls-8 {
        fill: url(#linear-gradient-5);
      }

      .cls-9 {
        letter-spacing: .23em;
      }

      .cls-10 {
        font-family: HelveticaNeueLTStd-ThEx, 'Helvetica Neue LT Std';
        font-size: 33.98px;
      }

      .cls-11 {
        letter-spacing: .19em;
      }
    </style>
    <linearGradient id="linear-gradient" x1="121.75" y1="-22.88" x2="154.62" y2="121.21" gradientUnits="userSpaceOnUse">
      <stop offset=".12" stop-color="#009eff"/>
      <stop offset=".24" stop-color="#008cf7"/>
      <stop offset=".71" stop-color="#004edb"/>
      <stop offset=".93" stop-color="#0036d0"/>
    </linearGradient>
    <linearGradient id="linear-gradient-2" x1="295.73" y1="-121.43" x2="445.9" y2="259.68" gradientUnits="userSpaceOnUse">
      <stop offset="0" stop-color="#009eff"/>
      <stop offset=".44" stop-color="#006ae7"/>
      <stop offset=".93" stop-color="#0036d0"/>
    </linearGradient>
    <linearGradient id="linear-gradient-3" x1="332.26" y1="-135.82" x2="482.43" y2="245.28" xlink:href="#linear-gradient-2"/>
    <linearGradient id="linear-gradient-4" x1="357.99" y1="-145.97" x2="508.17" y2="235.14" xlink:href="#linear-gradient-2"/>
    <linearGradient id="linear-gradient-5" x1="397.82" y1="-161.66" x2="548" y2="219.45" xlink:href="#linear-gradient-2"/>
    <linearGradient id="linear-gradient-6" x1="444.8" y1="-180.17" x2="594.97" y2="200.94" xlink:href="#linear-gradient-2"/>
    <linearGradient id="linear-gradient-7" x1="496.93" y1="-200.71" x2="647.1" y2="180.39" xlink:href="#linear-gradient-2"/>
    <linearGradient id="linear-gradient-8" x1="548.74" y1="-221.13" x2="698.91" y2="159.98" xlink:href="#linear-gradient-2"/>
  </defs>
  <path class="cls-1" d="m265.16,12.17C259.07,4.34,249.52,0,239.6,0h-9.22c-3.22,0-6.01,2.2-6.77,5.33l-8.18,33.94c-1.94,8.04-9.13,13.7-17.39,13.7h-28.76c-4.46,0-7.74-4.17-6.7-8.51l9.07-37.63c.73-3.04-1.57-5.97-4.7-5.97h-13.69c-20.85,0-38.99,14.28-43.87,34.55l-2.33,9.67c-1.11,4.62-5.25,7.87-10,7.87h-33.85c-4.46,0-7.74-4.17-6.7-8.51l9.07-37.63c.73-3.04-1.57-5.97-4.7-5.97h-13.21C26.57.86,8.19,15.34,3.23,35.88L.14,48.73c-.73,3.04,1.57,5.97,4.7,5.97h38.52c4.46,0,7.74,4.17,6.7,8.5l-1.93,8.01c-2.05,8.5-.4,17.59,4.93,24.52,5.4,7.03,13.61,11.06,22.46,11.06h15.59c2.23,0,4.18-1.53,4.7-3.7l9.76-40.52c1.11-4.62,5.25-7.87,10-7.87h33.81c4.46,0,7.74,4.17,6.7,8.5l-9.07,37.63c-.73,3.04,1.57,5.97,4.7,5.97h19.67c17.33,0,32.41-11.87,36.47-28.72l2.54-10.54c1.94-8.03,9.13-13.7,17.39-13.7h34.03c3.22,0,6.01-2.2,6.77-5.33l2.32-9.63c2.26-9.37.17-19.09-5.75-26.7Z"/>
  <g>
    <path class="cls-5" d="m314.27,10.56h9.72l9.66,33.24h.12l10.68-33.24h9.36l10.74,33.24h.12l9.84-33.24h9.36l-14.4,42.84h-9.72l-10.68-32.88h-.12l-10.74,32.88h-9.72l-14.22-42.84Z"/>
    <path class="cls-3" d="m393.88,10.56h9v42.84h-9V10.56Z"/>
    <path class="cls-4" d="m417.64,10.56h9v35.76h26.04v7.08h-35.04V10.56Z"/>
    <path class="cls-8" d="m463.65,10.56h9v35.76h26.04v7.08h-35.04V10.56Z"/>
    <path class="cls-6" d="m509.67,10.56h28.32c9.78,0,12.3,5.22,12.3,10.68,0,6.12-3.54,7.86-5.82,8.94,3.3,1.02,7.8,3.42,7.8,10.62,0,4.8-3,12.6-14.58,12.6h-28.02V10.56Zm9,17.4h16.8c2.52,0,5.82-.6,5.82-5.46,0-3.54-2.16-5.22-7.38-5.22h-15.24v10.68Zm0,18.72h16.14c4.02,0,8.1-.78,8.1-6.3,0-3.96-2.76-6.06-6.78-6.06h-17.46v12.36Z"/>
    <path class="cls-7" d="m565.28,10.56h9v24.18c0,5.94.24,13.14,11.94,13.14s12-7.2,12-13.14V10.56h9v24.42c0,7.08-.24,19.62-21,19.62s-20.94-12.54-20.94-19.62V10.56Z"/>
    <path class="cls-2" d="m635.54,37.08l-18.72-26.52h10.98l12.24,19.08,12.24-19.08h10.98l-18.72,26.52v16.32h-9v-16.32Z"/>
  </g>
  <text class="cls-10" transform="translate(314.62 106.79)"><tspan class="cls-9" x="0" y="0">CAR COM</tspan><tspan class="cls-11" x="224.01" y="0">P</tspan><tspan class="cls-9" x="253.24" y="0">ANY</tspan></text>
</svg>