<svg width="72" height="72" viewBox="0 0 72 72" fill="none" xmlns="http://www.w3.org/2000/svg">
<path d="M50.8132 46.1649L49.9832 45.7129C49.8422 45.6507 49.7273 45.5412 49.6585 45.4033C49.5897 45.2655 49.5712 45.1079 49.6062 44.9579C49.8332 43.5249 49.9832 38.5459 42.2892 36.2829C42.1466 36.2212 41.9911 36.1951 41.8362 36.2069L27.0502 36.2829C26.7575 36.2767 26.4693 36.3552 26.2202 36.5089L18.4502 41.7139C18.3125 41.7977 18.1576 41.8493 17.9972 41.8649C16.5824 41.8151 15.1664 41.9164 13.7732 42.1669C9.69918 42.9969 8.03918 45.1849 7.43618 46.3169C7.3147 46.5485 7.26262 46.8103 7.28618 47.0709C7.36118 48.8809 6.15418 50.9179 7.96418 52.5779L22.6002 52.5019L37.9902 52.1249L50.1352 51.9749C51.0164 51.6945 51.7665 51.1049 52.2472 50.3149C53.5292 48.2779 50.9642 46.2409 50.8132 46.1649Z" fill="#3F3F3F"/>
<path d="M14.9809 47.9761C14.3839 47.9761 13.8004 48.1531 13.3041 48.4848C12.8077 48.8164 12.4209 49.2878 12.1925 49.8394C11.9641 50.3909 11.9044 50.9978 12.021 51.5832C12.1375 52.1687 12.425 52.7064 12.8472 53.1285C13.2694 53.5505 13.8072 53.8379 14.3927 53.9542C14.9782 54.0705 15.5851 54.0106 16.1365 53.7821C16.688 53.5535 17.1593 53.1665 17.4908 52.6701C17.8223 52.1736 17.9991 51.59 17.9989 50.9931C17.9965 50.1935 17.6778 49.4273 17.1123 48.862C16.5468 48.2967 15.7805 47.9782 14.9809 47.9761ZM45.0059 47.9761C44.4089 47.9759 43.8253 48.1527 43.3288 48.4843C42.8323 48.8158 42.4454 49.2872 42.2168 49.8387C41.9883 50.3902 41.9284 50.9971 42.0448 51.5826C42.1613 52.1681 42.4487 52.706 42.8708 53.1281C43.293 53.5503 43.8308 53.8377 44.4164 53.9541C45.0019 54.0706 45.6088 54.0107 46.1603 53.7822C46.7118 53.5536 47.1831 53.1666 47.5147 52.6702C47.8462 52.1737 48.0231 51.5901 48.0229 50.9931C48.0205 50.1936 47.7019 49.4276 47.1366 48.8624C46.5713 48.2971 45.8053 47.9784 45.0059 47.9761Z" fill="#9B9B9A"/>
<path d="M44.2503 42.6198V39.3758C44.2405 39.0388 44.1023 38.7182 43.864 38.4798C43.6257 38.2413 43.3053 38.1028 42.9683 38.0928H26.9743C26.8993 38.0928 26.8233 38.0928 26.8233 38.1688L20.7883 42.4688C20.6383 42.5438 20.6383 42.7708 20.7133 42.9208C20.7883 42.9968 20.8633 43.0718 20.9393 43.0718C25.1633 43.0718 41.4593 42.9218 43.8723 42.9968C43.9226 42.9998 43.973 42.9922 44.0201 42.9743C44.0673 42.9565 44.1101 42.9288 44.1457 42.8932C44.1814 42.8575 44.209 42.8147 44.2269 42.7676C44.2447 42.7205 44.2534 42.6701 44.2503 42.6198Z" fill="#92D3F5"/>
<path d="M8.64269 43.5249L11.6607 44.7319L10.0767 46.9199L6.30469 46.9949L8.64269 43.5249Z" fill="#FCEA2B"/>
<path d="M40.438 22.8908C40.3854 21.8194 40.6618 20.7576 41.2301 19.8478C41.7983 18.938 42.6312 18.2238 43.6171 17.801C44.6029 17.3782 45.6944 17.267 46.7453 17.4823C47.7961 17.6977 48.7559 18.2293 49.496 19.0058C49.9726 18.2465 50.6799 17.6598 51.5142 17.3318C52.3486 17.0039 53.2661 16.9518 54.1322 17.1833C54.9983 17.4148 55.7675 17.9176 56.3269 18.6181C56.8864 19.3186 57.2067 20.18 57.241 21.0758L57.262 21.0728C58.3768 21.0278 59.4641 21.4259 60.2863 22.1801C61.1085 22.9343 61.5988 23.9833 61.6499 25.0979C61.701 26.2124 61.3089 27.3019 60.5592 28.1283C59.8095 28.9546 58.7632 29.4506 57.649 29.5078H57.644C57.576 29.5108 57.511 29.4978 57.444 29.4978C57.6099 29.8845 57.6958 30.3008 57.6964 30.7215C57.6971 31.1423 57.6125 31.5589 57.4477 31.946C57.283 32.3332 57.0415 32.683 56.7378 32.9743C56.4342 33.2656 56.0746 33.4923 55.681 33.6408C55.69 33.7038 55.723 33.7568 55.726 33.8218C55.7432 34.1012 55.7046 34.3813 55.6126 34.6456C55.5205 34.91 55.3768 35.1534 55.1898 35.3618C55.0028 35.5701 54.7763 35.7391 54.5233 35.859C54.2704 35.979 53.9961 36.0474 53.7165 36.0603C53.4368 36.0732 53.1574 36.0304 52.8945 35.9344C52.6315 35.8383 52.3903 35.6909 52.1849 35.5007C51.9795 35.3105 51.8139 35.0814 51.6979 34.8267C51.5818 34.5719 51.5176 34.2966 51.509 34.0168V34.0128C51.4908 33.4989 51.6631 32.9964 51.993 32.6018C51.7856 32.3185 51.627 32.0025 51.524 31.6668C51.0885 31.8674 50.613 31.9656 50.1338 31.9541C49.6545 31.9426 49.1842 31.8217 48.7589 31.6005C48.3336 31.3793 47.9646 31.0637 47.68 30.678C47.3954 30.2922 47.2028 29.8465 47.117 29.3748C46.3873 29.8643 45.5224 30.1126 44.6442 30.0847C43.7659 30.0568 42.9186 29.754 42.2215 29.2191C41.5244 28.6842 41.0126 27.9441 40.7583 27.1031C40.504 26.262 40.52 25.3623 40.804 24.5308C40.5943 24.0075 40.4707 23.4536 40.438 22.8908Z" fill="#D0CFCE"/>
<path d="M37.8389 51.446L22.2989 51.7481M8.04086 51.7481C7.36186 51.5971 6.75886 51.371 6.68286 50.993C6.60786 50.239 6.45686 48.127 6.45686 47.146C6.43986 46.746 6.54486 46.352 6.75886 46.014C7.58886 44.506 10.3789 40.8841 17.9989 41.1861L25.7689 35.981C26.1323 35.7542 26.5479 35.6244 26.9759 35.604L41.7619 35.529C41.9905 35.5164 42.2196 35.5417 42.4399 35.604C44.0999 36.057 51.2669 38.6211 50.2859 45.1091L51.1159 45.562C51.4979 45.726 51.7779 46.062 51.8699 46.467C52.1599 47.5375 52.1074 48.6719 51.7199 49.711" stroke="black" stroke-width="2" stroke-linecap="round" stroke-linejoin="round"/>
<path d="M20.7148 43.0719L43.4968 42.9209V39.0879" stroke="black" stroke-width="2" stroke-linecap="round" stroke-linejoin="round"/>
<path d="M14.981 54.7647C17.0642 54.7647 18.753 53.0759 18.753 50.9927C18.753 48.9095 17.0642 47.2207 14.981 47.2207C12.8978 47.2207 11.209 48.9095 11.209 50.9927C11.209 53.0759 12.8978 54.7647 14.981 54.7647Z" stroke="black" stroke-width="2" stroke-linecap="round" stroke-linejoin="round"/>
<path d="M45.0064 54.7647C47.0896 54.7647 48.7784 53.0759 48.7784 50.9927C48.7784 48.9095 47.0896 47.2207 45.0064 47.2207C42.9232 47.2207 41.2344 48.9095 41.2344 50.9927C41.2344 53.0759 42.9232 54.7647 45.0064 54.7647Z" stroke="black" stroke-width="2" stroke-linecap="round" stroke-linejoin="round"/>
<path d="M11.2095 45.3348L9.85155 46.9948L7.06055 46.9198M40.4385 22.8908C40.386 21.8194 40.6624 20.7576 41.2307 19.8478C41.7989 18.938 42.6318 18.2238 43.6177 17.801C44.6035 17.3782 45.695 17.267 46.7459 17.4823C47.7967 17.6977 48.7565 18.2293 49.4965 19.0058C49.9732 18.2465 50.6805 17.6598 51.5148 17.3318C52.3492 17.0039 53.2667 16.9518 54.1328 17.1833C54.9989 17.4148 55.7681 17.9176 56.3275 18.6181C56.887 19.3186 57.2073 20.18 57.2415 21.0758L57.2626 21.0728C58.3774 21.0278 59.4647 21.4259 60.2869 22.1801C61.1091 22.9343 61.5994 23.9833 61.6505 25.0979C61.7016 26.2124 61.3095 27.3019 60.5598 28.1283C59.8101 28.9546 58.7638 29.4506 57.6495 29.5078H57.6445C57.5765 29.5108 57.5115 29.4978 57.4445 29.4978C57.6105 29.8845 57.6964 30.3008 57.697 30.7215C57.6977 31.1423 57.6131 31.5589 57.4483 31.946C57.2835 32.3332 57.0421 32.683 56.7384 32.9743C56.4348 33.2656 56.0752 33.4923 55.6815 33.6408C55.6905 33.7038 55.7235 33.7568 55.7265 33.8218C55.7438 34.1012 55.7052 34.3813 55.6132 34.6456C55.5211 34.91 55.3774 35.1534 55.1904 35.3618C55.0034 35.5701 54.7769 35.7391 54.5239 35.859C54.271 35.979 53.9967 36.0474 53.717 36.0603C53.4374 36.0732 53.158 36.0304 52.8951 35.9344C52.6321 35.8383 52.3909 35.6909 52.1855 35.5007C51.9801 35.3105 51.8145 35.0814 51.6985 34.8267C51.5824 34.5719 51.5182 34.2966 51.5095 34.0168V34.0128C51.4914 33.4989 51.6637 32.9964 51.9935 32.6018C51.7862 32.3185 51.6276 32.0025 51.5245 31.6668C51.0891 31.8674 50.6136 31.9656 50.1344 31.9541C49.6551 31.9426 49.1848 31.8217 48.7595 31.6005C48.3342 31.3793 47.9652 31.0637 47.6806 30.678C47.396 30.2922 47.2034 29.8465 47.1175 29.3748C46.3879 29.8643 45.523 30.1126 44.6448 30.0847C43.7665 30.0568 42.9192 29.754 42.2221 29.2191C41.525 28.6842 41.0132 27.9441 40.7589 27.1031C40.5046 26.262 40.5206 25.3623 40.8046 24.5308C40.5949 24.0075 40.4713 23.4536 40.4385 22.8908Z" stroke="black" stroke-width="2" stroke-linecap="round" stroke-linejoin="round"/>
</svg>
