<svg width="42" height="32" viewBox="0 0 42 32" fill="none" xmlns="http://www.w3.org/2000/svg">
<g id="logos:mastercard" clip-path="url(#clip0_81_847)">
<rect width="42" height="32" fill="white"/>
<path id="Vector" d="M7.63553 31.8406V29.7226C7.63553 28.9106 7.1312 28.3812 6.26676 28.3812C5.83462 28.3812 5.36638 28.5224 5.0422 28.9813C4.7902 28.593 4.43008 28.3812 3.88982 28.3812C3.52954 28.3812 3.16959 28.487 2.88133 28.8753V28.4518H2.125V31.8406H2.88133V29.9696C2.88133 29.3696 3.20552 29.0871 3.70984 29.0871C4.21384 29.0871 4.46617 29.4049 4.46617 29.9696V31.8406H5.2225V29.9696C5.2225 29.3696 5.58245 29.0871 6.05069 29.0871C6.55502 29.0871 6.80702 29.4049 6.80702 29.9696V31.8406H7.63553ZM18.8362 28.4518H17.6118V27.4281H16.8555V28.4518H16.1712V29.1223H16.8554V30.6757C16.8554 31.4524 17.1795 31.9112 18.044 31.9112C18.3682 31.9112 18.7281 31.8053 18.9805 31.6642L18.7642 31.0287C18.5481 31.1698 18.2961 31.2052 18.116 31.2052C17.7559 31.2052 17.6118 30.9934 17.6118 30.6403V29.1223H18.8362V28.4518ZM25.2471 28.381C24.815 28.381 24.5269 28.593 24.3468 28.8753V28.4518H23.5904V31.8406H24.3468V29.9344C24.3468 29.3696 24.5988 29.0519 25.067 29.0519C25.2111 29.0519 25.3912 29.0873 25.5352 29.1225L25.7513 28.4166C25.6073 28.3812 25.3912 28.3812 25.2471 28.3812V28.381ZM15.5589 28.7341C15.1986 28.487 14.6945 28.3812 14.1542 28.3812C13.2899 28.3812 12.7138 28.8047 12.7138 29.4755C12.7138 30.0404 13.1459 30.3579 13.9022 30.4639L14.2623 30.4993C14.6586 30.5697 14.8746 30.6757 14.8746 30.8523C14.8746 31.0993 14.5865 31.2758 14.0822 31.2758C13.578 31.2758 13.1818 31.0993 12.9297 30.9229L12.5695 31.4876C12.9658 31.77 13.506 31.9112 14.0461 31.9112C15.0546 31.9112 15.631 31.4524 15.631 30.8169C15.631 30.2168 15.1627 29.899 14.4423 29.7932L14.0822 29.7578C13.758 29.7225 13.506 29.652 13.506 29.4402C13.506 29.1931 13.758 29.0519 14.1542 29.0519C14.5865 29.0519 15.0187 29.2283 15.2347 29.3343L15.5589 28.7341ZM35.6558 28.3812C35.2235 28.3812 34.9354 28.593 34.7552 28.8753V28.4518H33.9989V31.8406H34.7552V29.9344C34.7552 29.3696 35.0074 29.0519 35.4755 29.0519C35.6197 29.0519 35.7998 29.0873 35.9439 29.1225L36.1599 28.4166C36.0159 28.3812 35.7998 28.3812 35.6558 28.3812ZM26.0035 30.1462C26.0035 31.1698 26.7237 31.9112 27.8403 31.9112C28.3445 31.9112 28.7046 31.8053 29.0647 31.523L28.7046 30.9229C28.4165 31.1346 28.1284 31.2404 27.8042 31.2404C27.1919 31.2404 26.7598 30.8169 26.7598 30.1462C26.7598 29.5108 27.1919 29.0871 27.8042 29.0519C28.1284 29.0519 28.4165 29.1577 28.7046 29.3696L29.0647 28.7695C28.7046 28.487 28.3445 28.3812 27.8403 28.3812C26.7237 28.3812 26.0035 29.1225 26.0035 30.1462ZM32.9906 30.1462V28.4518H32.2342V28.8753C31.9821 28.5577 31.622 28.3812 31.1537 28.3812C30.1813 28.3812 29.425 29.1225 29.425 30.1462C29.425 31.1698 30.1813 31.9112 31.1537 31.9112C31.6579 31.9112 32.0182 31.7348 32.2342 31.417V31.8406H32.9906V30.1462ZM30.2173 30.1462C30.2173 29.546 30.6135 29.0519 31.2617 29.0519C31.874 29.0519 32.3063 29.5108 32.3063 30.1462C32.3063 30.7463 31.874 31.2404 31.2617 31.2404C30.6135 31.2051 30.2173 30.7463 30.2173 30.1462ZM21.1774 28.3812C20.1689 28.3812 19.4485 29.0871 19.4485 30.1462C19.4485 31.2052 20.1688 31.9112 21.2133 31.9112C21.7175 31.9112 22.2218 31.77 22.618 31.4524L22.2578 30.9229C21.9697 31.1346 21.6096 31.2758 21.2494 31.2758C20.7812 31.2758 20.313 31.064 20.2049 30.4638H22.7621V30.1815C22.7982 29.0871 22.15 28.3812 21.1774 28.3812ZM21.1774 29.0165C21.6455 29.0165 21.9698 29.2991 22.0417 29.8286H20.2409C20.313 29.3696 20.6372 29.0165 21.1774 29.0165ZM39.9416 30.1462V27.1104H39.1852V28.8753C38.9331 28.5577 38.573 28.3812 38.1047 28.3812C37.1323 28.3812 36.376 29.1225 36.376 30.1462C36.376 31.1698 37.1323 31.9112 38.1047 31.9112C38.6091 31.9112 38.9692 31.7348 39.1852 31.417V31.8406H39.9416V30.1462ZM37.1684 30.1462C37.1684 29.546 37.5645 29.0519 38.2128 29.0519C38.8251 29.0519 39.2573 29.5108 39.2573 30.1462C39.2573 30.7463 38.8251 31.2404 38.2128 31.2404C37.5645 31.2051 37.1684 30.7463 37.1684 30.1462ZM11.8852 30.1462V28.4518H11.1289V28.8753C10.8767 28.5577 10.5166 28.3812 10.0484 28.3812C9.076 28.3812 8.31967 29.1225 8.31967 30.1462C8.31967 31.1698 9.076 31.9112 10.0484 31.9112C10.5527 31.9112 10.9128 31.7348 11.1289 31.417V31.8406H11.8852V30.1462ZM9.076 30.1462C9.076 29.546 9.47221 29.0519 10.1204 29.0519C10.7327 29.0519 11.165 29.5108 11.165 30.1462C11.165 30.7463 10.7327 31.2404 10.1204 31.2404C9.47221 31.2051 9.076 30.7463 9.076 30.1462Z" fill="black"/>
<path id="Vector_2" d="M15.3066 2.71777H26.6516V22.6978H15.3066V2.71777Z" fill="#FF5F00"/>
<path id="Vector_3" d="M16.0271 12.7082C16.0271 8.64868 17.9719 5.04796 20.9611 2.71807C18.7643 1.02368 15.9912 0 12.9659 0C5.79846 0 0 5.6833 0 12.7082C0 19.7329 5.79846 25.4164 12.9657 25.4164C15.991 25.4164 18.7642 24.3927 20.9611 22.6981C17.9719 20.4036 16.0271 16.7677 16.0271 12.7082Z" fill="#EB001B"/>
<path id="Vector_4" d="M41.9582 12.7082C41.9582 19.7329 36.1597 25.4164 28.9925 25.4164C25.9672 25.4164 23.194 24.3927 20.9971 22.6981C24.0224 20.3684 25.9312 16.7677 25.9312 12.7082C25.9312 8.64868 23.9863 5.04796 20.9971 2.71807C23.1939 1.02368 25.9672 0 28.9925 0C36.1597 0 41.9582 5.71867 41.9582 12.7082Z" fill="#F79E1B"/>
</g>
<defs>
<clipPath id="clip0_81_847">
<rect width="42" height="32" fill="white"/>
</clipPath>
</defs>
</svg>
