<svg width="75" height="75" viewBox="0 0 75 75" fill="none" xmlns="http://www.w3.org/2000/svg">
<g id="Group 14492">
<circle id="Ellipse 1170" cx="37.5" cy="37.5" r="37.5" fill="#0077B6" fill-opacity="0.2"/>
<path id="Vector" d="M47.5714 31.1429C47.5714 33.3486 45.7771 35.1429 43.5714 35.1429C41.3657 35.1429 39.5714 33.3486 39.5714 31.1429C39.5714 28.9371 41.3657 27.1429 43.5714 27.1429C45.7771 27.1429 47.5714 28.9371 47.5714 31.1429ZM45.2857 37.1886C44.7143 37.3371 44.1429 37.4286 43.5714 37.4286C41.9053 37.4256 40.3082 36.7623 39.1301 35.5842C37.9519 34.406 37.2887 32.809 37.2857 31.1429C37.2857 29.4629 37.9486 27.9429 39 26.8114C38.7926 26.5572 38.5311 26.3524 38.2345 26.2121C37.938 26.0717 37.6138 25.9992 37.2857 26C36.0286 26 35 27.0286 35 28.2857V28.6171C31.6057 29.6229 29.2857 32.7429 29.2857 36.2857V43.1429L27 45.4286V46.5714H47.5714V45.4286L45.2857 43.1429V37.1886ZM37.2857 50C38.5543 50 39.5714 48.9829 39.5714 47.7143H35C35 48.3205 35.2408 48.9019 35.6695 49.3305C36.0981 49.7592 36.6795 50 37.2857 50Z" fill="#0077B6"/>
</g>
</svg>
