<svg width="17" height="12" viewBox="0 0 17 12" fill="none" xmlns="http://www.w3.org/2000/svg">
<path id="Vector" d="M3.03571 0C2.23059 0 1.45845 0.316071 0.88914 0.87868C0.319833 1.44129 0 2.20435 0 3V3.6H17V3C17 2.20435 16.6802 1.44129 16.1109 0.87868C15.5416 0.316071 14.7694 0 13.9643 0H3.03571ZM17 4.8H0V9C0 9.79565 0.319833 10.5587 0.88914 11.1213C1.45845 11.6839 2.23059 12 3.03571 12H13.9643C14.7694 12 15.5416 11.6839 16.1109 11.1213C16.6802 10.5587 17 9.79565 17 9V4.8ZM11.5357 8.4H13.9643C14.1253 8.4 14.2797 8.46321 14.3936 8.57574C14.5075 8.68826 14.5714 8.84087 14.5714 9C14.5714 9.15913 14.5075 9.31174 14.3936 9.42426C14.2797 9.53679 14.1253 9.6 13.9643 9.6H11.5357C11.3747 9.6 11.2203 9.53679 11.1064 9.42426C10.9925 9.31174 10.9286 9.15913 10.9286 9C10.9286 8.84087 10.9925 8.68826 11.1064 8.57574C11.2203 8.46321 11.3747 8.4 11.5357 8.4Z" fill="#333333" fill-opacity="0.5"/>
</svg>
