<svg width="16" height="14" viewBox="0 0 16 14" fill="none" xmlns="http://www.w3.org/2000/svg">
<path d="M7 0H8.75C9.23398 0 9.625 0.391016 9.625 0.875V2.625C9.625 3.10898 9.23398 3.5 8.75 3.5H7C6.51602 3.5 6.125 3.10898 6.125 2.625V0.875C6.125 0.391016 6.51602 0 7 0ZM1.75 1.75H5.25V3.0625C5.25 3.78711 5.83789 4.375 6.5625 4.375H9.1875C9.91211 4.375 10.5 3.78711 10.5 3.0625V1.75H14C14.9652 1.75 15.75 2.53477 15.75 3.5V12.25C15.75 13.2152 14.9652 14 14 14H1.75C0.784766 14 0 13.2152 0 12.25V3.5C0 2.53477 0.784766 1.75 1.75 1.75ZM4.8125 11.9574C4.8125 12.1187 4.94375 12.25 5.10508 12.25H10.6449C10.8062 12.25 10.9375 12.1187 10.9375 11.9574C10.9375 11.1508 10.284 10.5 9.48008 10.5H6.26992C5.46328 10.5 4.8125 11.1535 4.8125 11.9574ZM7.875 9.625C8.33913 9.625 8.78425 9.44063 9.11244 9.11244C9.44063 8.78425 9.625 8.33913 9.625 7.875C9.625 7.41087 9.44063 6.96575 9.11244 6.63756C8.78425 6.30937 8.33913 6.125 7.875 6.125C7.41087 6.125 6.96575 6.30937 6.63756 6.63756C6.30937 6.96575 6.125 7.41087 6.125 7.875C6.125 8.33913 6.30937 8.78425 6.63756 9.11244C6.96575 9.44063 7.41087 9.625 7.875 9.625Z" fill="#989898"/>
</svg>
