<svg width="13" height="16" viewBox="0 0 13 16" fill="none" xmlns="http://www.w3.org/2000/svg">
<path id="Vector" d="M2.6 2.66667V12.1849L4.55 10.6667C4.89575 10.4138 6.05723 9.33333 6.5 9.33333C6.94276 9.33333 8.10425 10.4138 8.45 10.6667L10.4 12.055V2.66667H2.6ZM0.65 0H12.35C12.5224 0 12.6877 0.0626225 12.8096 0.174091C12.9315 0.28556 13 0.436744 13 0.594385V15.4065C12.9998 15.5183 12.9651 15.6278 12.8999 15.7225C12.8347 15.8171 12.7417 15.893 12.6314 15.9414C12.5212 15.9898 12.3982 16.0088 12.2767 15.9962C12.1551 15.9836 12.04 15.9399 11.9444 15.8701L6.9056 12.1849C6.79042 12.1008 6.6474 12.055 6.5 12.055C6.3526 12.055 6.20958 12.1008 6.0944 12.1849L1.0556 15.8701C0.960024 15.9399 0.844853 15.9836 0.723323 15.9962C0.601793 16.0088 0.478836 15.9898 0.368583 15.9414C0.25833 15.893 0.165255 15.8171 0.100055 15.7225C0.0348544 15.6278 0.000174113 15.5183 0 15.4065V0.594385C0 0.436744 0.0684821 0.28556 0.190381 0.174091C0.312279 0.0626225 0.477609 0 0.65 0Z" fill="#333333" fill-opacity="0.5"/>
</svg>
