<svg width="14" height="14" viewBox="0 0 14 14" fill="none" xmlns="http://www.w3.org/2000/svg">
<path id="Vector" d="M8.58573 13.597C8.31707 13.8657 7.98415 14 7.58699 14C7.18982 14 6.85691 13.8657 6.58824 13.597L0.42053 7.42929C0.292036 7.30079 0.189708 7.14894 0.113546 6.97372C0.0373843 6.7985 -0.000462977 6.6116 4.27364e-06 6.41302V1.40175C4.27364e-06 1.01627 0.137376 0.686159 0.412119 0.411415C0.686863 0.136672 1.01674 -0.000466061 1.40176 1.18994e-06H6.41302C6.6116 1.18994e-06 6.7985 0.0380822 6.97372 0.114244C7.14894 0.190406 7.3008 0.2925 7.42929 0.420527L13.597 6.60576C13.8657 6.87443 14 7.20454 14 7.5961C14 7.98765 13.8657 8.31753 13.597 8.58573L8.58573 13.597ZM3.15395 4.20526C3.44598 4.20526 3.69432 4.10293 3.89898 3.89827C4.10363 3.69362 4.20573 3.44551 4.20526 3.15394C4.20526 2.86191 4.10293 2.61357 3.89828 2.40891C3.69362 2.20426 3.44551 2.10216 3.15395 2.10263C2.86191 2.10263 2.61357 2.20496 2.40892 2.40961C2.20426 2.61427 2.10217 2.86238 2.10263 3.15394C2.10263 3.44597 2.20496 3.69432 2.40962 3.89897C2.61427 4.10363 2.86238 4.20572 3.15395 4.20526Z" fill="#333333" fill-opacity="0.5"/>
</svg>
