<svg width="19" height="16" viewBox="0 0 19 16" fill="none" xmlns="http://www.w3.org/2000/svg">
<path id="Vector" d="M8.44099 3.19681L8.87539 2.72469V5.59741C8.87539 5.80963 8.96014 6.01317 9.111 6.16323C9.26186 6.3133 9.46647 6.39761 9.67982 6.39761C9.89317 6.39761 10.0978 6.3133 10.2486 6.16323C10.3995 6.01317 10.4843 5.80963 10.4843 5.59741V2.72469L10.9186 3.1648C10.9917 3.24684 11.0808 3.31309 11.1807 3.35943C11.2805 3.40578 11.3888 3.43125 11.4989 3.43425C11.609 3.43725 11.7186 3.41772 11.8208 3.37688C11.923 3.33604 12.0157 3.27475 12.0931 3.19681C12.1685 3.12242 12.2284 3.03392 12.2692 2.9364C12.31 2.83889 12.3311 2.7343 12.3311 2.62867C12.3311 2.52303 12.31 2.41844 12.2692 2.32093C12.2284 2.22342 12.1685 2.13491 12.0931 2.06052L10.251 0.228068C10.1745 0.155217 10.0843 0.0981108 9.98551 0.0600258C9.78966 -0.0200086 9.56999 -0.0200086 9.37414 0.0600258C9.27539 0.0981108 9.18518 0.155217 9.10867 0.228068L7.26652 2.02852C7.11078 2.18344 7.02328 2.39356 7.02328 2.61266C7.02328 2.83176 7.11078 3.04188 7.26652 3.19681C7.42227 3.35173 7.6335 3.43877 7.85376 3.43877C8.07401 3.43877 8.28525 3.35173 8.44099 3.19681ZM9.67982 7.998C9.20252 7.998 8.73593 8.1388 8.33906 8.40258C7.9422 8.66636 7.63288 9.04128 7.45022 9.47993C7.26757 9.91859 7.21977 10.4013 7.31289 10.8669C7.40601 11.3326 7.63585 11.7604 7.97336 12.0961C8.31087 12.4318 8.74088 12.6604 9.20901 12.7531C9.67715 12.8457 10.1624 12.7982 10.6034 12.6165C11.0443 12.4348 11.4212 12.1271 11.6864 11.7323C11.9516 11.3375 12.0931 10.8734 12.0931 10.3986C12.0931 9.76192 11.8389 9.15132 11.3863 8.70112C10.9337 8.25092 10.3199 7.998 9.67982 7.998ZM9.67982 11.1988C9.52072 11.1988 9.36519 11.1519 9.2329 11.0639C9.10061 10.976 8.99751 10.851 8.93662 10.7048C8.87574 10.5586 8.85981 10.3977 8.89085 10.2425C8.92188 10.0873 8.9985 9.94469 9.111 9.83278C9.2235 9.72087 9.36684 9.64466 9.52289 9.61378C9.67893 9.5829 9.84067 9.59875 9.98767 9.65932C10.1347 9.71988 10.2603 9.82244 10.3487 9.95404C10.4371 10.0856 10.4843 10.2403 10.4843 10.3986C10.4843 10.6108 10.3995 10.8144 10.2486 10.9644C10.0978 11.1145 9.89317 11.1988 9.67982 11.1988ZM4.04879 10.3986C4.04879 10.5569 4.09597 10.7116 4.18436 10.8432C4.27275 10.9748 4.39839 11.0773 4.54538 11.1379C4.69237 11.1985 4.85411 11.2143 5.01016 11.1834C5.1662 11.1526 5.30954 11.0763 5.42204 10.9644C5.53454 10.8525 5.61116 10.7099 5.6422 10.5547C5.67324 10.3995 5.65731 10.2386 5.59642 10.0924C5.53554 9.94616 5.43243 9.82119 5.30014 9.73326C5.16785 9.64533 5.01232 9.5984 4.85322 9.5984C4.63987 9.5984 4.43526 9.68271 4.2844 9.83278C4.13354 9.98284 4.04879 10.1864 4.04879 10.3986ZM15.3109 10.3986C15.3109 10.2403 15.2637 10.0856 15.1753 9.95404C15.0869 9.82244 14.9613 9.71988 14.8143 9.65932C14.6673 9.59875 14.5055 9.5829 14.3495 9.61378C14.1934 9.64466 14.0501 9.72087 13.9376 9.83278C13.8251 9.94469 13.7485 10.0873 13.7174 10.2425C13.6864 10.3977 13.7023 10.5586 13.7632 10.7048C13.8241 10.851 13.9272 10.976 14.0595 11.0639C14.1918 11.1519 14.3473 11.1988 14.5064 11.1988C14.7198 11.1988 14.9244 11.1145 15.0752 10.9644C15.2261 10.8144 15.3109 10.6108 15.3109 10.3986ZM16.1153 4.79721H12.8976C12.6842 4.79721 12.4796 4.88151 12.3287 5.03158C12.1779 5.18165 12.0931 5.38518 12.0931 5.59741C12.0931 5.80963 12.1779 6.01317 12.3287 6.16323C12.4796 6.3133 12.6842 6.39761 12.8976 6.39761H16.1153C16.3286 6.39761 16.5332 6.48191 16.6841 6.63198C16.835 6.78205 16.9197 6.98558 16.9197 7.19781V13.5994C16.9197 13.8116 16.835 14.0152 16.6841 14.1652C16.5332 14.3153 16.3286 14.3996 16.1153 14.3996H3.24435C3.03101 14.3996 2.8264 14.3153 2.67553 14.1652C2.52467 14.0152 2.43992 13.8116 2.43992 13.5994V7.19781C2.43992 6.98558 2.52467 6.78205 2.67553 6.63198C2.8264 6.48191 3.03101 6.39761 3.24435 6.39761H6.46209C6.67544 6.39761 6.88005 6.3133 7.03091 6.16323C7.18177 6.01317 7.26652 5.80963 7.26652 5.59741C7.26652 5.38518 7.18177 5.18165 7.03091 5.03158C6.88005 4.88151 6.67544 4.79721 6.46209 4.79721H3.24435C2.60431 4.79721 1.99048 5.05013 1.53789 5.50033C1.08531 5.95053 0.831055 6.56113 0.831055 7.19781V13.5994C0.831055 14.2361 1.08531 14.8467 1.53789 15.2969C1.99048 15.7471 2.60431 16 3.24435 16H16.1153C16.7553 16 17.3692 15.7471 17.8218 15.2969C18.2743 14.8467 18.5286 14.2361 18.5286 13.5994V7.19781C18.5286 6.56113 18.2743 5.95053 17.8218 5.50033C17.3692 5.05013 16.7553 4.79721 16.1153 4.79721Z" fill="#0077B6"/>
</svg>
